<mxfile host="app.diagrams.net" modified="2023-10-13T10:28:03.926Z" agent="Mozilla/5.0 (Macintosh; Intel Mac OS X 10_15_7) AppleWebKit/537.36 (KHTML, like Gecko) Chrome/117.0.0.0 Safari/537.36" etag="jg0LcS_4lz9OJl8CFZxO" version="22.0.4" type="device">
  <diagram name="Page-1" id="3Da-K6MAal7oWcjGSvR0">
    <mxGraphModel dx="475" dy="372" grid="1" gridSize="10" guides="1" tooltips="1" connect="1" arrows="1" fold="1" page="1" pageScale="1" pageWidth="500" pageHeight="350" math="0" shadow="0">
      <root>
        <mxCell id="0" />
        <mxCell id="1" parent="0" />
        <mxCell id="A9JhJGFbWzhmeyQdjoZD-13" value="" style="ellipse;shape=cloud;whiteSpace=wrap;html=1;dashed=1;dashPattern=1 4;fillColor=default;fillOpacity=50;strokeColor=none;shadow=1;" parent="1" vertex="1">
          <mxGeometry x="80" y="470" width="260" height="140" as="geometry" />
        </mxCell>
        <mxCell id="A9JhJGFbWzhmeyQdjoZD-12" value="" style="ellipse;shape=cloud;whiteSpace=wrap;html=1;dashed=1;dashPattern=1 4;fillColor=default;fillOpacity=50;strokeColor=none;shadow=1;" parent="1" vertex="1">
          <mxGeometry x="180" y="380" width="170" height="110" as="geometry" />
        </mxCell>
        <mxCell id="A9JhJGFbWzhmeyQdjoZD-11" value="" style="ellipse;shape=cloud;whiteSpace=wrap;html=1;dashed=1;dashPattern=1 4;fillColor=default;fillOpacity=50;strokeColor=none;shadow=1;" parent="1" vertex="1">
          <mxGeometry x="60" y="380" width="130" height="110" as="geometry" />
        </mxCell>
        <mxCell id="A9JhJGFbWzhmeyQdjoZD-1" value="&lt;b&gt;Trigger&lt;/b&gt;" style="rounded=0;whiteSpace=wrap;html=1;shadow=1;" parent="1" vertex="1">
          <mxGeometry x="100" y="410" width="60" height="20" as="geometry" />
        </mxCell>
        <mxCell id="A9JhJGFbWzhmeyQdjoZD-2" value="&lt;b&gt;Computation&lt;/b&gt;" style="rounded=0;whiteSpace=wrap;html=1;shadow=1;" parent="1" vertex="1">
          <mxGeometry x="230" y="410" width="90" height="20" as="geometry" />
        </mxCell>
        <mxCell id="A9JhJGFbWzhmeyQdjoZD-3" value="&lt;b&gt;Fiber&lt;/b&gt;" style="rounded=0;whiteSpace=wrap;html=1;shadow=1;" parent="1" vertex="1">
          <mxGeometry x="165" y="500" width="55" height="20" as="geometry" />
        </mxCell>
        <mxCell id="A9JhJGFbWzhmeyQdjoZD-4" value="&lt;i&gt;Await&lt;/i&gt;" style="shape=step;perimeter=stepPerimeter;whiteSpace=wrap;html=1;fixedSize=1;size=10;" parent="1" vertex="1">
          <mxGeometry x="90" y="440" width="80" height="20" as="geometry" />
        </mxCell>
        <mxCell id="A9JhJGFbWzhmeyQdjoZD-5" value="&lt;i&gt;Cancel_after&lt;/i&gt;" style="shape=step;perimeter=stepPerimeter;whiteSpace=wrap;html=1;fixedSize=1;size=10;" parent="1" vertex="1">
          <mxGeometry x="220" y="440" width="110" height="20" as="geometry" />
        </mxCell>
        <mxCell id="A9JhJGFbWzhmeyQdjoZD-6" value="&lt;i&gt;Yield&lt;/i&gt;" style="shape=step;perimeter=stepPerimeter;whiteSpace=wrap;html=1;fixedSize=1;size=10;" parent="1" vertex="1">
          <mxGeometry x="220" y="530" width="80" height="20" as="geometry" />
        </mxCell>
        <mxCell id="A9JhJGFbWzhmeyQdjoZD-7" value="&lt;i&gt;Spawn&lt;/i&gt;" style="shape=step;perimeter=stepPerimeter;whiteSpace=wrap;html=1;fixedSize=1;size=10;" parent="1" vertex="1">
          <mxGeometry x="180" y="560" width="80" height="20" as="geometry" />
        </mxCell>
        <mxCell id="A9JhJGFbWzhmeyQdjoZD-8" value="&lt;i&gt;Current&lt;/i&gt;" style="shape=step;perimeter=stepPerimeter;whiteSpace=wrap;html=1;fixedSize=1;size=10;" parent="1" vertex="1">
          <mxGeometry x="130" y="530" width="80" height="20" as="geometry" />
        </mxCell>
      </root>
    </mxGraphModel>
  </diagram>
</mxfile>
